Coordinates
version=1
nRows=11
nColumns=36
inDegrees=yes

Units are S.I. units (second, meters, Newtons, ...)
If the header above contains a line with 'inDegrees', this indicates whether rotational values are in degrees (yes) or radians (no).

endheader
time	pelvis_tilt	pelvis_list	pelvis_rotation	pelvis_tx	pelvis_ty	pelvis_tz	hip_flexion_r	hip_adduction_r	hip_rotation_r	knee_angle_r	knee_angle_r_beta	ankle_angle_r	subtalar_angle_r	mtp_angle_r	hip_flexion_l	hip_adduction_l	hip_rotation_l	knee_angle_l	knee_angle_l_beta	ankle_angle_l	subtalar_angle_l	mtp_angle_l	lumbar_extension	lumbar_bending	lumbar_rotation	arm_flex_r	arm_add_r	arm_rot_r	elbow_flex_r	pro_sup_r	arm_flex_l	arm_add_l	arm_rot_l	elbow_flex_l	pro_sup_l
      1.23333330	    -20.95780999	      0.84469522	      3.82971069	     -0.38154219	      1.47068279	     -0.04467930	      9.91475642	     -5.38686290	     -5.44667721	      4.14874866	      0.07240932	    -33.62053936	      5.13876414	     -7.49999987	     14.27000699	     -5.36147948	     -4.04832307	      5.34887060	      0.09335540	    -37.19894895	     -8.42414877	     -7.49999987	      7.37068208	     -0.99247650	      1.41022348	     -3.60398755	    -64.07798498	     -4.30763336	     93.16246967	     76.24773896	     90.61226720	    -58.27573072	    105.77599758	    110.49970008	     74.94782187
      1.23750000	    -20.71599289	      1.04550555	      3.17245088	     -0.36126731	      1.47411692	     -0.05472920	      9.21547842	     -6.05671706	     -4.95852766	      3.36946340	      0.05880823	    -33.77437105	      6.58377274	     -7.49999987	     13.31842842	     -4.93436525	     -4.24216775	      4.11163291	      0.07176153	    -35.24894471	     -7.49760911	     -7.49999987	      7.86686263	     -0.13650459	      1.83887463	     -5.75311672	    -64.58768974	     -4.83450919	     92.57805998	     76.53586699	     85.12550928	    -59.27569924	    102.85656890	    110.70850643	     75.22061707
      1.24166670	    -20.38581725	      0.99946418	      2.78748232	     -0.36096716	      1.47553426	     -0.05437479	      9.04367452	     -6.14066277	     -4.83942544	      2.78743257	      0.04864988	    -33.52551286	      6.96774443	     -7.49999987	     12.91540594	     -5.19294947	     -4.41358395	      3.26425421	      0.05697198	    -32.83004394	     -7.49682889	     -7.49999987	      7.92056284	      0.62016395	      2.43791076	     -6.96922404	    -65.23170737	     -4.88960813	     90.63992275	     76.72821076	     82.32486908	    -58.82898079	    102.66281875	    109.86215736	     75.42959068
      1.24583330	    -20.30940895	      1.06421435	      2.60356739	     -0.36144247	      1.47787721	     -0.05387115	      9.64708583	     -6.44764831	     -5.06232432	      2.96767139	      0.05179564	    -33.60591276	      6.92088943	     -7.49999987	     12.78433014	     -4.90079184	     -4.04466896	      2.87820873	      0.05023422	    -33.08053570	     -6.77637080	     -7.49999987	      7.87462837	      1.20699062	      4.15281888	    -12.94575438	    -65.17944038	    -10.97572618	     91.36147277	     79.00168632	     79.32773244	    -56.58525630	    100.66897631	    107.58332948	     78.93628939
      1.25000000	    -20.06719034	      0.95377318	      2.97117806	     -0.35556022	      1.47815543	     -0.05774482	      9.98335051	     -6.65162622	     -5.83011899	      3.26714529	      0.05702244	    -33.85188608	      7.29445415	     -7.49999987	     12.69638753	     -4.56946849	     -4.93386467	      2.92323131	      0.05102001	    -35.09436589	     -5.80748906	     -7.49999987	      8.01570086	      1.53228298	      4.17359069	    -13.71105258	    -65.30397754	    -10.75476168	     90.21706284	     77.60201171	     77.71649001	    -55.54470754	    100.47336415	    105.23996124	     77.20880695
      1.25416670	    -19.78565670	      0.80397282	      3.13991338	     -0.35085577	      1.47805076	     -0.05491726	     10.37498993	     -6.71055352	     -7.25922366	      3.66572163	      0.06397891	    -33.29354672	      7.45165889	     -7.49999987	     12.70205884	     -4.55450177	     -6.27084630	      3.04896988	      0.05321456	    -36.42162709	     -4.97536171	     -7.49999987	      8.17620032	      1.72167810	      4.40204733	    -14.35395930	    -65.40241101	    -10.27124057	     89.26452359	     76.27955239	     76.84406526	    -54.97234947	    100.44582756	    103.02430718	     75.63195152
      1.25833330	    -19.70164155	      0.78987698	      3.34579073	     -0.34967660	      1.48137039	     -0.05434056	     10.81319488	     -6.95216852	     -8.34577360	      3.56732854	      0.06226163	    -32.83369454	      8.23453930	     -7.49999987	     13.26992918	     -4.57315126	     -7.43308738	      2.86124248	      0.04993810	    -39.45834454	     -4.27747906	     -7.49999987	      8.38875308	      1.62517668	      4.51881712	    -14.68912903	    -64.78491104	     -9.50871491	     89.18222071	     75.27845639	     76.08209004	    -54.38263079	    100.53617431	    100.59313067	     74.39455725
      1.26250000	    -19.60129080	      0.80155965	      3.59704300	     -0.34488085	      1.48066036	     -0.05080442	     10.87603099	     -6.98474121	     -8.37692431	      3.16761394	      0.05528529	    -32.13723919	      8.38458679	     -7.49999987	     13.78034453	     -4.74933149	     -7.27243000	      2.87670397	      0.05020796	    -39.68830688	     -3.78608123	     -7.49999987	      8.39942202	      1.27909891	      4.82680746	    -16.23433014	    -63.68988683	    -10.52760811	     88.92691859	     79.70193550	     76.24850180	    -53.69475399	    101.11835335	     98.03311376	     75.02050091
      1.26666670	    -19.50581533	      0.89497920	      3.35568006	     -0.34392816	      1.48172428	     -0.05051588	     11.50038126	     -7.04396416	     -8.09151633	      3.19239101	      0.05571773	    -31.93601409	      8.08466268	     -7.49999987	     14.32854686	     -4.88029383	     -5.89173648	      2.87722036	      0.05021697	    -39.50418067	     -2.55835426	     -7.49999987	      8.08246678	      1.11150246	      5.41781046	    -16.11513469	    -63.32697419	     -9.91299980	     88.17828799	     77.85886896	     75.80569393	    -53.53882123	    100.66310482	     95.92207225	     73.44627734
      1.27083330	    -19.39951197	      0.99232889	      3.86185689	     -0.33395369	      1.48379172	     -0.05214287	     11.68125504	     -7.22381126	     -7.52110246	      3.00682013	      0.05247891	    -31.19558734	      7.95478773	     -7.49999987	     14.69350996	     -4.74932304	     -4.37385204	      3.37214070	      0.05885496	    -37.90101661	     -1.82948533	     -7.49999987	      7.78842911	      1.06831943	      4.82812259	    -16.54363586	    -62.84686109	     -9.81793477	     88.20043659	     77.20373812	     74.83630968	    -54.37575123	    100.04441831	     95.66448655	     72.70630354
      1.27500000	    -19.37528522	      0.82913279	      3.96230524	     -0.32758808	      1.48054187	     -0.04829561	     11.81066412	     -6.85000464	     -6.26311705	      2.82129568	      0.04924090	    -29.86880147	      8.10912721	     -7.49999987	     15.09465973	     -5.22637037	     -3.19888829	      4.16405944	      0.07267655	    -34.98301900	     -1.67525863	     -7.49999987	      7.43765988	      1.35468621	      4.74448831	    -17.64979919	    -62.65661382	    -10.65720165	     89.27981975	     79.93962966	     73.31226298	    -55.58242135	     98.79704558	     95.92553624	     74.57571784
